<svg width="192" height="192" viewBox="0 0 192 192" fill="none" xmlns="http://www.w3.org/2000/svg">
<rect width="192" height="192" fill="#1E1E1E"/>
<rect width="192" height="192" fill="white"/>
<path fill-rule="evenodd" clip-rule="evenodd" d="M96 149C132.727 149 162.5 119.227 162.5 82.5C162.5 45.7731 132.727 16 96 16C59.2731 16 29.5 45.7731 29.5 82.5C29.5 119.227 59.2731 149 96 149ZM96 137C126.1 137 150.5 112.6 150.5 82.5C150.5 52.4005 126.1 28 96 28C65.9005 28 41.5 52.4005 41.5 82.5C41.5 112.6 65.9005 137 96 137Z" fill="black"/>
<path d="M53.5 125.5C63.5 137 96 167.74 96 167.74C96 167.74 128.5 137 138.5 125.5" stroke="black" stroke-width="12"/>
<path d="M85 83V56C95.5 56 107 56 107 69.5C107 83 95.5 83 85 83ZM85 83V110C95.5 110 107 110 107 96.5C107 83 95.5 83 85 83Z" stroke="black" stroke-width="12"/>
</svg>
