<svg width="192" height="192" viewBox="0 0 192 192" fill="none" xmlns="http://www.w3.org/2000/svg">
<path d="M20 95.5L39 95.5C39.5 95.5 40.2984 95.9475 41 97C42.0954 98.6431 46.5 106.5 47.5 107.5C48.5 108.5 50.1199 108.64 50.5 107.5C51 106 54 89 54.5 86.5C54.8 85 57.7929 84.3787 58.5 86.5C59.5 89.5 63.6938 98.8875 64.5 100.5C65.3062 102.112 68.5 102 69 100.5C69.6201 98.6398 72 81 72.5 79C73 77 75.7 77 76.5 79L84 98C84.5 99 105.5 94.1667 106.5 94C107.5 93.8333 108.7 93.5 109.5 95.5C110.3 97.5 115.2 111.5 116 113.5L128 70L137 102L144.5 83L149.5 95.5H172" stroke="black" stroke-width="8" stroke-linecap="round"/>
<path fill-rule="evenodd" clip-rule="evenodd" d="M56 58C64.2843 58 71 51.2843 71 43C71 34.7157 64.2843 28 56 28C47.7157 28 41 34.7157 41 43C41 51.2843 47.7157 58 56 58ZM56 49C59.3137 49 62 46.3137 62 43C62 39.6863 59.3137 37 56 37C52.6863 37 50 39.6863 50 43C50 46.3137 52.6863 49 56 49Z" fill="black"/>
</svg>
